<svg id="Layer_1" data-name="Layer 1" xmlns="http://www.w3.org/2000/svg" viewBox="0 0 512 512"><defs><style>.cls-1{fill:#141f38;}</style></defs><title>telescope_style_2</title><path class="cls-1" d="M503.9,66.62a86.63,86.63,0,0,0-78.56-50h0l-.36,0a41.23,41.23,0,0,0-53.62-10.9L303.19,46.18h0L132.11,147.73,89,173.31a40.74,40.74,0,0,0-16.15,52.3l.35.76-17.4,8.11a31.65,31.65,0,0,0-28.07-.57l-9.25,4.31A32,32,0,0,0,3,280.74L23,323.6a32,32,0,0,0,42.56,15.48l9.25-4.31A31.82,31.82,0,0,0,92.35,313l19-8.86a43.13,43.13,0,0,0,44,11.45L234,288.06a51.31,51.31,0,0,0,17.69,22.36L154.85,493.21a12.81,12.81,0,0,0,22.64,12l91.16-172.05V499.2a12.81,12.81,0,0,0,25.62,0V333.13l91.16,172.05a12.81,12.81,0,0,0,22.64-12L311.22,310.42a51,51,0,0,0,19.35-56.14l59.95-21h0l67.67-23.67,7.15-2.5a41,41,0,0,0,5.48-2.43,40.43,40.43,0,0,0,14.06-12.15A41.31,41.31,0,0,0,492.43,173a38.36,38.36,0,0,0-.95-14.09A86.34,86.34,0,0,0,503.9,66.62ZM64,311.57l-9.25,4.31a6.31,6.31,0,0,1-2.68.61,6.46,6.46,0,0,1-5.83-3.7l-20-42.86a6.4,6.4,0,0,1,3.1-8.5l9.25-4.31a6.35,6.35,0,0,1,2.69-.61,6.46,6.46,0,0,1,5.82,3.7l20,42.86A6.41,6.41,0,0,1,64,311.57Zm24.58-25.1-15-32,9.64-4.49,15,32Zm58.36,4.92a15.17,15.17,0,0,1-18.79-7.91l-32.06-68.7a15.12,15.12,0,0,1,6-19.46l18.75-11.13,46.67,100Zm134.53,3a25.6,25.6,0,1,1,25.62-25.6A25.64,25.64,0,0,1,281.46,294.4ZM317,231.93a51.17,51.17,0,0,0-86.24,30.16l-38.89,13.6L143,171,314.08,69.5,379.64,210Zm148.91-57.37a16.42,16.42,0,0,1-2.19,3.57c-.21.27-.35.53-.59.8-.09.1-.24.19-.33.29a14.76,14.76,0,0,1-5.87,3.78l-11.48,4-41.45,14.5L336.21,56.36,375.41,33.1l9-5.36a15.46,15.46,0,0,1,1.87-.8,14.77,14.77,0,0,1,5.85-1.34A15.13,15.13,0,0,1,406,34.37l59.67,127.87a15,15,0,0,1,.23,12.31Zm13.53-43.39L438.65,43.85a60.53,60.53,0,0,1,40.74,87.31Z"/></svg>